<?xml version="1.0" encoding="UTF-8"?><svg id="Layer_2" xmlns="http://www.w3.org/2000/svg" viewBox="0 0 461.29 110.38"><g fill="#fff"  id="Layer_1-2"><path d="M53.72,69.45c0-22.39,16.83-40.93,41.64-40.93s41.64,18.54,41.64,40.93-16.83,40.93-41.64,40.93-41.64-18.25-41.64-40.93ZM116.9,69.45c0-12.26-9.41-22.1-21.53-22.1s-21.53,9.84-21.53,22.1,9.41,22.25,21.53,22.25,21.53-9.84,21.53-22.25Z"/><path d="M144.14,69.45c0-23.67,17.11-40.79,41.78-40.79,15.4,0,29.66,7.56,36.22,21.68l-16.11,8.84c-4.42-7.27-11.55-11.84-19.82-11.84-12.69,0-22.1,9.55-22.1,22.1s9.27,22.25,21.68,22.25c8.27,0,16.4-4.99,19.82-11.69l16.26,9.55c-6.56,12.41-20.39,20.54-36.51,20.54-24.24,0-41.21-16.97-41.21-40.64Z"/><path fill="#fff" d="M256.8,75.15l-5.28,4.71v28.52h-20.11V0h20.11v57.19l28.24-26.53h25.38l-34.65,31.8,36.65,45.92h-24.67l-25.67-33.23Z"/><path fill="#fff" d="M387.43,30.66v77.72h-19.11v-8.98c-5.7,6.13-13.83,10.84-24.81,10.84-22.53,0-38.5-17.97-38.5-41.07s16.4-40.5,38.5-40.5c10.98,0,18.97,4.85,24.81,11.27v-9.27h19.11ZM368.6,69.45c0-12.12-8.98-22.39-21.82-22.39s-21.68,10.27-21.68,22.39,8.84,22.53,21.68,22.53,21.82-10.27,21.82-22.53Z"/><path d="M0,30.53h19.29v10.43c4.86-8.57,12.28-12.52,21.43-12.52h10.02v19.4c-1.67,0-8.59-.02-11.59-.02-10.57,0-19,6.57-19,23.57v37H0V30.53Z"/><path d="M457.28,31.26h-11.26c-2.21,0-4-1.79-4-4V4.01c0-3.82-4.84-5.47-7.17-2.44l-17.89,23.25c-2.02,2.63-.15,6.44,3.17,6.44h12c1.66.28,2.97,1.59,3.26,3.25v24c0,3.82,4.84,5.47,7.17,2.44l17.89-23.25c2.02-2.63.15-6.44-3.17-6.44Z" style="fill:#1964bd;"/></g></svg>